<svg
    version="1.1"
    id="Layer_1"
    xmlns="http://www.w3.org/2000/svg"
    xmlnsXlink="http://www.w3.org/1999/xlink"
    viewBox="0 0 64 64"
    xmlSpace="preserve"
    width="64px"
    height="64px"
  >
    <g>
      <circle cx="32" cy="32" r="4" fill="#FF6347" />
      <circle cx="16" cy="16" r="3" fill="#4682B4" />
      <circle cx="48" cy="16" r="3" fill="#4682B4" />
      <circle cx="16" cy="48" r="3" fill="#4682B4" />
      <circle cx="48" cy="48" r="3" fill="#4682B4" />
      <path
        d="M32,2c-5.5,0-10.5,1.2-14.6,3.3c-1.5,0.7-2.8,1.5-4.1,2.4c-1.3,0.9-2.5,1.9-3.6,2.9c-1.1,1-2.1,2.1-3,3.2
        c-0.9,1.1-1.7,2.3-2.4,3.6C3.2,21.5,2,26.5,2,32s1.2,10.5,3.3,14.6c0.7,1.5,1.5,2.8,2.4,4.1c0.9,1.3,1.9,2.5,2.9,3.6
        c1,1.1,2.1,2.1,3.2,3c1.1,0.9,2.3,1.7,3.6,2.4C21.5,60.8,26.5,62,32,62s10.5-1.2,14.6-3.3c1.5-0.7,2.8-1.5,4.1-2.4
        c1.3-0.9,2.5-1.9,3.6-2.9c1-1.1,2.1-2.1,3-3.2c0.9-1.1,1.7-2.3,2.4-3.6C60.8,42.5,62,37.5,62,32s-1.2-10.5-3.3-14.6
        c-0.7-1.5-1.5-2.8-2.4-4.1c-0.9-1.3-1.9-2.5-2.9-3.6c-1-1.1-2.1-2.1-3.2-3c-1.1-0.9-2.3-1.7-3.6-2.4C42.5,3.2,37.5,2,32,2z
        M32,56c-4.9,0-9.5-1.3-13.4-3.5c-1.4-0.8-2.7-1.6-3.9-2.6c-1.2-1-2.3-2.1-3.3-3.3c-1-1.2-2.1-2.3-3-3.6c-0.9-1.3-1.7-2.6-2.4-4
        C5.3,38.5,4,34.9,4,32s1.3-6.5,3.5-9.4c0.8-1.4,1.6-2.7,2.6-3.9c1-1.2,2.1-2.3,3.3-3.3c1.2-1,2.3-2.1,3.6-3c1.3-0.9,2.6-1.7,4-2.4
        C22.5,5.3,26.1,4,32,4s9.5,1.3,13.4,3.5c1.4,0.8,2.7,1.6,3.9,2.6c1.2,1,2.3,2.1,3.3,3.3c1,1.2,2.1,2.3,3,3.6
        c0.9,1.3,1.7,2.6,2.4,4C58.7,25.5,60,29.1,60,32s-1.3,6.5-3.5,9.4c-0.8,1.4-1.6,2.7-2.6,3.9c-1,1.2-2.1,2.3-3.3,3.3
        c-1.2,1-2.3,2.1-3.6,3c-1.3,0.9-2.6,1.7-4,2.4C41.5,54.7,36.9,56,32,56z"
        fill="#FFD700"
      />
    </g>
  </svg>

